Coordinates
version=1
nRows=13
nColumns=40
inDegrees=yes

Units are S.I. units (second, meters, Newtons, ...)
If the header above contains a line with 'inDegrees', this indicates whether rotational values are in degrees (yes) or radians (no).

endheader
time	pelvis_tilt	pelvis_list	pelvis_rotation	pelvis_tx	pelvis_ty	pelvis_tz	hip_flexion_r	hip_adduction_r	hip_rotation_r	knee_angle_r	knee_angle_r_beta	ankle_angle_r	subtalar_angle_r	mtp_angle_r	hip_flexion_l	hip_adduction_l	hip_rotation_l	knee_angle_l	knee_angle_l_beta	ankle_angle_l	subtalar_angle_l	mtp_angle_l	lumbar_extension	lumbar_bending	lumbar_rotation	arm_flex_r	arm_add_r	arm_rot_r	elbow_flex_r	pro_sup_r	wrist_flex_r	wrist_dev_r	arm_flex_l	arm_add_l	arm_rot_l	elbow_flex_l	pro_sup_l	wrist_flex_l	wrist_dev_l
      0.38000000	      6.34231975	      5.88609871	     -3.77037138	      0.21393756	      0.97336014	     -0.23309398	     16.23239898	    -12.43587101	     -2.85869469	     56.13301165	      0.97970587	      0.24638587	      0.00000000	      0.00000000	     -4.17539869	      8.46908626	     -3.00397988	     12.96788609	      0.22633231	      7.63361322	      0.00000000	      0.00000000	    -16.30542771	     -8.64621976	     -2.55088588	     -1.81447206	     -6.73223197	     12.39334954	     38.50229061	     88.79915297	     -0.73990363	     11.73053352	      6.36457992	    -10.90537902	      5.24041984	     47.85716175	     89.39606763	    -17.31021637	      6.25943886
      0.39000000	      6.71094791	      5.64002106	     -3.60746651	      0.22445482	      0.97404176	     -0.23335783	     16.44260947	    -11.98320561	     -3.34183290	     53.93575985	      0.94135659	      0.50633080	      0.00000000	      0.00000000	     -5.74817830	      8.30319034	     -2.83547957	     12.00011554	      0.20944153	      7.73832228	      0.00000000	      0.00000000	    -16.77330814	     -8.27992596	     -3.21876635	     -1.77566583	     -6.66234863	     12.66866908	     38.32829664	     88.80039644	     -0.78200291	     11.41687637	      6.63041783	    -10.92875633	      4.04585939	     49.37932174	     89.39494804	    -16.71527134	      6.32675207
      0.40000000	      6.48586957	      5.69323689	     -3.59876101	      0.23488090	      0.97333306	     -0.23337079	     17.43927225	    -11.72521761	     -3.44188391	     51.80064691	      0.90409184	      0.75941894	      0.00000000	      0.00000000	     -6.61781988	      8.43536846	     -2.73192783	     11.08661217	      0.19349789	      7.91069418	      0.00000000	      0.00000000	    -16.49290212	     -8.25832797	     -3.45474903	     -1.96994303	     -6.55819373	     12.62939488	     38.19455856	     88.79075507	     -0.82775141	     11.36741084	      7.17048352	    -11.08331546	      3.79253139	     50.48753813	     89.38635283	    -16.52530663	      6.27831416
      0.41000000	      6.27681514	      5.92002430	     -3.60465732	      0.24514899	      0.97235894	     -0.23333489	     18.37185729	    -11.65736212	     -3.54323695	     49.47150882	      0.86344071	      0.89297366	      0.00000000	      0.00000000	     -7.34929601	      8.73655623	     -2.76275756	     10.50469624	      0.18334154	      8.18251626	      0.00000000	      0.00000000	    -16.23481920	     -8.44638840	     -3.59011222	     -2.21023290	     -6.47817994	     12.62882992	     38.12118728	     88.78917215	     -0.84384547	     11.34723245	      7.83032045	    -11.21923731	      3.63997237	     51.52624350	     89.37313243	    -16.44056146	      6.16990855
      0.42000000	      7.03505974	      5.45341588	     -3.48288515	      0.25573795	      0.97305200	     -0.23336547	     17.78544857	    -10.99116369	     -4.23518220	     46.55121513	      0.81247197	      0.91992540	      0.00000000	      0.00000000	     -9.45186002	      8.35321121	     -2.53679494	      9.30586890	      0.16241805	      8.11884993	      0.00000000	      0.00000000	    -17.17739886	     -7.86785589	     -4.33770151	     -1.91218245	     -6.43108587	     13.08086621	     37.81533155	     88.81331566	     -0.86087047	     10.95330146	      7.86922677	    -11.23537189	      2.21369263	     53.41936152	     89.37634743	    -15.70068784	      6.07923208
      0.43000000	      6.73409811	      5.76196068	     -3.52249482	      0.26599270	      0.97142691	     -0.23315785	     18.70573018	    -10.99736729	     -4.34870367	     43.99716414	      0.76789538	      1.00739315	      0.00000000	      0.00000000	    -10.07370959	      8.73785306	     -2.56559445	      8.72845982	      0.15234036	      8.44870736	      0.00000000	      0.00000000	    -16.81836923	     -8.15915659	     -4.42328072	     -2.10477119	     -6.32425235	     13.06639167	     37.69455617	     88.80052290	     -0.89782459	     10.96201617	      8.48796775	    -11.43585873	      2.24609853	     54.52438812	     89.36513023	    -15.57759654	      5.98441045
      0.44000000	      7.23944313	      5.45823721	     -3.42645917	      0.27655209	      0.97122402	     -0.23306254	     18.31479176	    -10.47086570	     -5.00423155	     40.87814973	      0.71345830	      0.85812674	      0.00000000	      0.00000000	    -11.78142167	      8.50004493	     -2.39436616	      7.77902967	      0.13576968	      8.49738903	      0.00000000	      0.00000000	    -17.44098355	     -7.75914029	     -4.95896468	     -1.88213737	     -6.26148618	     13.41372898	     37.35422710	     88.82176662	     -1.05881660	     10.67929424	      8.67323956	    -11.55920569	      1.44125509	     56.21741554	     89.35517239	    -14.80102507	      5.98780165
      0.45000000	      6.92158637	      5.86234716	     -3.51567799	      0.28686131	      0.96910102	     -0.23282368	     19.14558731	    -10.58302172	     -5.17905339	     38.15373478	      0.66590829	      0.94074536	      0.00000000	      0.00000000	    -12.31554844	      8.99761490	     -2.48451305	      7.34708618	      0.12823084	      8.87794630	      0.00000000	      0.00000000	    -17.05961284	     -8.16946489	     -4.93737606	     -2.07417882	     -6.17889102	     13.37587890	     37.24381474	     88.81196458	     -1.09796109	     10.69613169	      9.28070131	    -11.71339684	      1.54549648	     57.33730317	     89.35811457	    -14.70664051	      5.87373635
      0.46000000	      7.44913949	      5.54825040	     -3.38848077	      0.29740482	      0.96862240	     -0.23250462	     18.56022139	    -10.01790653	     -5.89280158	     34.80004692	      0.60737540	      0.61543340	      0.00000000	      0.00000000	    -13.95142297	      8.71351645	     -2.38521914	      6.61840078	      0.11551288	      8.99880895	      0.00000000	      0.00000000	    -17.70675080	     -7.75570168	     -5.40905321	     -1.88209200	     -6.05524412	     13.50161423	     36.96370004	     88.83280539	     -1.38934219	     10.38793811	      9.54708490	    -11.93356292	      1.09701188	     58.84671161	     89.33311754	    -14.02446364	      5.84669591
      0.47000000	      7.14279897	      5.94162845	     -3.48686050	      0.30783313	      0.96625593	     -0.23198943	     19.22554585	    -10.06882717	     -6.04613136	     31.93416718	      0.55735636	      0.65101215	      0.00000000	      0.00000000	    -14.44785440	      9.18566191	     -2.51048521	      6.29835945	      0.10992711	      9.36132731	      0.00000000	      0.00000000	    -17.34656961	     -8.15518879	     -5.41490479	     -2.02136695	     -5.92076762	     13.38423870	     36.84889941	     88.82529884	     -1.45395597	     10.38869651	     10.05976257	    -12.15163951	      1.24807028	     59.94863850	     89.32091490	    -13.92680106	      5.72909738
      0.48000000	      7.21018540	      5.87571926	     -3.49708948	      0.31821076	      0.96465446	     -0.23136395	     19.20338730	     -9.63267993	     -6.36144190	     28.71620287	      0.50119229	      0.17523957	      0.00000000	      0.00000000	    -15.35176958	      9.14446596	     -2.60344436	      6.01970708	      0.10506371	      9.61921496	      0.00000000	      0.00000000	    -17.45732205	     -8.04121586	     -5.53125427	     -1.95179272	     -5.73166374	     13.08611711	     36.55935099	     88.86267954	     -1.62320437	     10.25505673	     10.45899370	    -12.36393791	      1.24025139	     61.18775237	     89.30470190	    -13.75229472	      5.56661361
      0.49000000	      7.64383924	      5.71311672	     -3.30496707	      0.32885522	      0.96356033	     -0.23115059	     18.59119674	     -9.22358780	     -7.10490338	     25.44582773	      0.44411347	     -0.19412792	      0.00000000	      0.00000000	    -16.66209519	      8.97410602	     -2.66577732	      5.79350379	      0.10111572	     10.05548673	      0.00000000	      0.00000000	    -18.02465734	     -7.76087129	     -5.78020935	     -1.95674389	     -5.68997471	     13.07136608	     36.57103215	     88.86608954	     -1.89428981	      9.96503276	     10.91981534	    -12.46510150	      1.18293844	     62.33901368	     89.30022093	    -13.48848056	      5.41748837
      0.50000000	      7.44949483	      5.99410047	     -3.28088227	      0.33929029	      0.96120327	     -0.23048025	     18.88862000	     -9.11400670	     -7.08813288	     22.56396764	      0.39381553	     -0.39819236	      0.00000000	      0.00000000	    -17.12446441	      9.25234525	     -2.78708153	      5.83508048	      0.10184137	     10.46201518	      0.00000000	      0.00000000	    -17.82722492	     -8.00277852	     -5.86704363	     -1.98088891	     -5.49573298	     12.80080913	     36.40665980	     88.86589596	     -2.02920006	      9.92104561	     11.35659767	    -12.68200287	      1.35936518	     63.34782417	     89.28978751	    -13.39630738	      5.30563338
